<svg width="40" height="39" viewBox="0 0 40 39" fill="none" xmlns="http://www.w3.org/2000/svg">
<circle cx="20.3839" cy="19.442" r="18.942" fill="#212529" stroke="#F9FBFC"/>
<path d="M24.8159 15.0103V15.0201M12.5059 15.5027C12.5059 14.458 12.9209 13.456 13.6596 12.7172C14.3984 11.9785 15.4003 11.5635 16.4451 11.5635H24.3235C25.3683 11.5635 26.3702 11.9785 27.109 12.7172C27.8477 13.456 28.2628 14.458 28.2628 15.5027V23.3812C28.2628 24.4259 27.8477 25.4279 27.109 26.1666C26.3702 26.9054 25.3683 27.3204 24.3235 27.3204H16.4451C15.4003 27.3204 14.3984 26.9054 13.6596 26.1666C12.9209 25.4279 12.5059 24.4259 12.5059 23.3812V15.5027ZM17.4299 19.4419C17.4299 20.2255 17.7412 20.977 18.2952 21.531C18.8493 22.0851 19.6008 22.3963 20.3843 22.3963C21.1679 22.3963 21.9193 22.0851 22.4734 21.531C23.0275 20.977 23.3387 20.2255 23.3387 19.4419C23.3387 18.6584 23.0275 17.9069 22.4734 17.3528C21.9193 16.7988 21.1679 16.4875 20.3843 16.4875C19.6008 16.4875 18.8493 16.7988 18.2952 17.3528C17.7412 17.9069 17.4299 18.6584 17.4299 19.4419Z" stroke="white" stroke-width="2" stroke-linecap="round" stroke-linejoin="round"/>
</svg>
