<svg width="40" height="39" viewBox="0 0 40 39" fill="none" xmlns="http://www.w3.org/2000/svg">
<circle cx="20.2682" cy="19.442" r="18.942" fill="#212529" stroke="#F9FBFC"/>
<path d="M16.3294 18.4571V23.3812M16.3294 15.5027V15.5126M20.2686 23.3812V18.4571M24.2078 23.3812V20.4267C24.2078 19.9044 24.0003 19.4034 23.6309 19.034C23.2616 18.6646 22.7606 18.4571 22.2382 18.4571C21.7158 18.4571 21.2149 18.6646 20.8455 19.034C20.4761 19.4034 20.2686 19.9044 20.2686 20.4267M12.3901 13.5331C12.3901 13.0107 12.5976 12.5097 12.967 12.1404C13.3364 11.771 13.8374 11.5635 14.3597 11.5635H26.1774C26.6998 11.5635 27.2008 11.771 27.5702 12.1404C27.9395 12.5097 28.147 13.0107 28.147 13.5331V25.3508C28.147 25.8731 27.9395 26.3741 27.5702 26.7435C27.2008 27.1129 26.6998 27.3204 26.1774 27.3204H14.3597C13.8374 27.3204 13.3364 27.1129 12.967 26.7435C12.5976 26.3741 12.3901 25.8731 12.3901 25.3508V13.5331Z" stroke="white" stroke-width="2" stroke-linecap="round" stroke-linejoin="round"/>
</svg>
