<svg width="709" height="204" viewBox="0 0 709 204" fill="none" xmlns="http://www.w3.org/2000/svg">
<g clip-path="url(#clip0_1729_172)">
<rect width="709" height="204" rx="20" fill="url(#paint0_linear_1729_172)"/>
<path fill-rule="evenodd" clip-rule="evenodd" d="M600.738 19.1543C577.431 19.1543 558.314 33.5813 558.314 51.5876C558.314 69.5928 577.431 84.0198 600.738 84.0198C685.431 84.0198 753.866 136.32 753.866 200.625C753.866 209.265 744.617 216.269 733.209 216.269C721.801 216.269 712.552 209.265 712.552 200.625C712.552 153.413 662.368 115.308 600.738 115.308C554.368 115.308 517 86.6855 517 51.5876C517 16.4886 554.368 -12.1338 600.738 -12.1338C612.147 -12.1338 621.395 -5.12943 621.395 3.51026C621.395 12.15 612.147 19.1543 600.738 19.1543Z" fill="#FFC735" fill-opacity="0.1"/>
<path fill-rule="evenodd" clip-rule="evenodd" d="M-91.2597 1.65988C-85.5488 9.1613 -72.8914 11.7281 -62.9871 7.39157C-46.4815 0.164733 -25.3845 4.44173 -15.8661 16.9444L53.0729 107.498C62.5913 120 56.927 135.994 40.4214 143.221C30.5171 147.558 27.1196 157.154 32.8305 164.656C38.5414 172.157 51.1988 174.724 61.1031 170.387C79.9434 162.138 92.3632 148.697 97.0285 133.829C116.338 138.199 137.899 136.763 156.739 128.514L211.73 104.436C248.043 88.5371 260.504 53.3507 239.563 25.8442C233.852 18.3428 221.194 15.7766 211.291 20.1126C201.388 24.4486 197.989 34.0454 203.7 41.5468C213.218 54.0495 207.554 70.0437 191.048 77.2706L136.057 101.348C119.552 108.575 98.4548 104.298 88.9364 91.795L19.9974 1.24185C-0.943478 -26.2646 -47.357 -35.6732 -83.6688 -19.7744C-93.5731 -15.4379 -96.9706 -5.84154 -91.2597 1.65988Z" fill="#00CCFF" fill-opacity="0.2"/>
<path fill-rule="evenodd" clip-rule="evenodd" d="M286.205 145.011C278.151 151.12 265.093 151.12 257.04 145.011C248.987 138.901 248.987 128.996 257.04 122.887C265.093 116.778 278.151 116.778 286.205 122.887C294.259 128.996 294.259 138.901 286.205 145.011Z" fill="#463C74" fill-opacity="0.2"/>
<path d="M299.299 14.2092C299.299 -0.209293 314.707 -11.898 333.715 -11.898C352.722 -11.898 368.13 -0.209293 368.13 14.2092C368.13 28.6278 352.722 40.3165 333.715 40.3165C322.311 40.3165 313.065 47.33 313.065 55.9809C313.065 64.6318 322.311 71.6453 333.715 71.6453C375.531 71.6453 409.429 45.9306 409.429 14.2092C409.429 -17.5122 375.531 -43.2268 333.715 -43.2268C291.898 -43.2268 258 -17.5122 258 14.2092C258 22.8602 267.245 29.8736 278.649 29.8736C290.053 29.8736 299.299 22.8602 299.299 14.2092Z" fill="#FBFBFB" fill-opacity="0.1"/>
<path d="M370.299 206.834C370.299 192.415 385.707 180.726 404.715 180.726C423.722 180.726 439.13 192.415 439.13 206.834C439.13 221.252 423.722 232.941 404.715 232.941C393.311 232.941 384.065 239.954 384.065 248.605C384.065 257.256 393.311 264.27 404.715 264.27C446.531 264.27 480.429 238.555 480.429 206.834C480.429 175.112 446.531 149.398 404.715 149.398C362.898 149.398 329 175.112 329 206.834C329 215.485 338.245 222.498 349.649 222.498C361.053 222.498 370.299 215.485 370.299 206.834Z" fill="#FBFBFB" fill-opacity="0.1"/>
<path d="M451.601 65.5445C451.967 64.7959 453.033 64.7959 453.399 65.5445L456.76 72.4329C456.885 72.6893 457.114 72.8801 457.388 72.9572L465.569 75.2528C466.542 75.5259 466.542 76.9054 465.569 77.1785L457.388 79.4741C457.114 79.5512 456.885 79.742 456.76 79.9984L453.399 86.8868C453.033 87.6354 451.967 87.6354 451.601 86.8868L448.24 79.9984C448.115 79.742 447.886 79.5512 447.612 79.4741L439.431 77.1785C438.458 76.9054 438.458 75.5259 439.431 75.2528L447.612 72.9572C447.886 72.8801 448.115 72.6893 448.24 72.4329L451.601 65.5445Z" fill="#FFC735" fill-opacity="0.2"/>
<path d="M546.101 134.556C546.467 133.807 547.533 133.807 547.899 134.556L552.745 144.489C552.87 144.745 553.099 144.936 553.374 145.013L565.569 148.435C566.542 148.708 566.542 150.088 565.569 150.361L553.374 153.783C553.099 153.86 552.87 154.051 552.745 154.307L547.899 164.24C547.533 164.989 546.467 164.989 546.101 164.24L541.255 154.307C541.13 154.051 540.901 153.86 540.626 153.783L528.431 150.361C527.458 150.088 527.458 148.708 528.431 148.435L540.626 145.013C540.901 144.936 541.13 144.745 541.255 144.489L546.101 134.556Z" fill="#96EAFF" fill-opacity="0.1"/>
<path d="M183.101 145.931C183.467 145.182 184.533 145.182 184.899 145.931L189.745 155.864C189.87 156.12 190.099 156.311 190.374 156.388L202.569 159.81C203.542 160.083 203.542 161.463 202.569 161.736L190.374 165.158C190.099 165.235 189.87 165.426 189.745 165.682L184.899 175.615C184.533 176.364 183.467 176.364 183.101 175.615L178.255 165.682C178.13 165.426 177.901 165.235 177.626 165.158L165.431 161.736C164.458 161.463 164.458 160.083 165.431 159.81L177.626 156.388C177.901 156.311 178.13 156.12 178.255 155.864L183.101 145.931Z" fill="#96EAFF" fill-opacity="0.1"/>
</g>
<defs>
<linearGradient id="paint0_linear_1729_172" x1="354.5" y1="0" x2="354.5" y2="391.316" gradientUnits="userSpaceOnUse">
<stop stop-color="#00CCFF"/>
<stop offset="1" stop-color="#463C74"/>
</linearGradient>
<clipPath id="clip0_1729_172">
<rect width="709" height="204" rx="20" fill="white"/>
</clipPath>
</defs>
</svg>
