<svg width="709" height="323" viewBox="0 0 709 323" fill="none" xmlns="http://www.w3.org/2000/svg">
<g clip-path="url(#clip0_1729_305)">
<rect width="709" height="323" rx="20" fill="url(#paint0_linear_1729_305)"/>
<path fill-rule="evenodd" clip-rule="evenodd" d="M286.205 229.6C278.151 239.274 265.093 239.274 257.04 229.6C248.987 219.927 248.987 204.244 257.04 194.571C265.093 184.898 278.151 184.898 286.205 194.571C294.259 204.244 294.259 219.927 286.205 229.6Z" fill="#463C74" fill-opacity="0.2"/>
<path d="M451.544 103.964C451.834 103.023 453.166 103.023 453.456 103.964L456.823 114.889C456.908 115.165 457.108 115.391 457.372 115.508L466.943 119.761C467.735 120.113 467.735 121.237 466.943 121.589L457.372 125.841C457.108 125.959 456.908 126.184 456.823 126.461L453.456 137.386C453.166 138.327 451.834 138.327 451.544 137.386L448.177 126.461C448.092 126.184 447.892 125.959 447.628 125.841L438.057 121.589C437.265 121.237 437.265 120.113 438.057 119.761L447.628 115.508C447.892 115.391 448.092 115.165 448.177 114.889L451.544 103.964Z" fill="#FFC735" fill-opacity="0.2"/>
<path d="M546.044 213.231C546.334 212.291 547.666 212.291 547.956 213.231L552.808 228.977C552.893 229.253 553.094 229.479 553.358 229.596L566.943 235.633C567.735 235.985 567.735 237.108 566.943 237.46L553.358 243.497C553.094 243.614 552.893 243.84 552.808 244.116L547.956 259.862C547.666 260.802 546.334 260.802 546.044 259.862L541.192 244.116C541.107 243.84 540.906 243.614 540.642 243.497L527.057 237.46C526.265 237.108 526.265 235.985 527.057 235.633L540.642 229.596C540.906 229.479 541.107 229.253 541.192 228.977L546.044 213.231Z" fill="#96EAFF" fill-opacity="0.1"/>
<path d="M183.044 231.242C183.334 230.302 184.666 230.302 184.956 231.242L189.808 246.988C189.893 247.264 190.094 247.49 190.358 247.608L203.943 253.644C204.735 253.996 204.735 255.12 203.943 255.472L190.358 261.508C190.094 261.625 189.893 261.851 189.808 262.127L184.956 277.873C184.666 278.814 183.334 278.814 183.044 277.873L178.192 262.127C178.107 261.851 177.906 261.625 177.642 261.508L164.057 255.472C163.265 255.12 163.265 253.996 164.057 253.644L177.642 247.608C177.906 247.49 178.107 247.264 178.192 246.988L183.044 231.242Z" fill="#96EAFF" fill-opacity="0.1"/>
<path d="M265.448 248.04C241.69 293.047 203.857 327.689 158.58 345.893C113.303 364.097 63.471 364.701 17.8185 347.6C-27.834 330.5 -66.3943 296.785 -91.1041 252.365C-115.814 207.946 -125.096 155.655 -117.325 104.659C-109.553 53.663 -85.223 7.2149 -48.5991 -26.544C-11.9751 -60.303 34.606 -79.2189 82.98 -79.9764C131.354 -80.7338 178.434 -63.2844 215.969 -30.6867C253.504 1.91111 279.099 47.5774 288.267 98.3083L225.452 111.256C219.131 76.2795 201.485 44.795 175.607 22.3206C149.729 -0.153839 117.269 -12.1842 83.9179 -11.662C50.5666 -11.1398 18.4513 1.9017 -6.79893 25.1767C-32.0492 48.4517 -48.8234 80.4752 -54.1816 115.634C-59.5397 150.793 -53.1399 186.845 -36.1039 217.47C-19.0678 248.095 7.51752 271.339 38.9925 283.13C70.4674 294.92 104.824 294.503 136.04 281.952C167.256 269.402 193.34 245.518 209.72 214.488L265.448 248.04Z" fill="#00CCFF" fill-opacity="0.47"/>
<path d="M423.552 235.04C447.31 280.047 485.143 314.689 530.42 332.893C575.697 351.097 625.529 351.701 671.181 334.6C716.834 317.5 755.394 283.785 780.104 239.365C804.814 194.946 814.096 142.655 806.325 91.6591C798.553 40.663 774.223 -5.7851 737.599 -39.544C700.975 -73.303 654.394 -92.2189 606.02 -92.9764C557.646 -93.7338 510.566 -76.2844 473.031 -43.6867C435.496 -11.0889 409.901 34.5774 400.733 85.3083L463.548 98.2558C469.869 63.2795 487.515 31.795 513.393 9.32059C539.271 -13.1538 571.731 -25.1842 605.082 -24.662C638.433 -24.1398 670.549 -11.0983 695.799 12.1767C721.049 35.4517 737.823 67.4752 743.182 102.634C748.54 137.793 742.14 173.845 725.104 204.47C708.068 235.095 681.482 258.339 650.008 270.13C618.533 281.92 584.176 281.503 552.96 268.952C521.744 256.402 495.66 232.518 479.28 201.488L423.552 235.04Z" fill="#00CCFF" fill-opacity="0.47"/>
</g>
<defs>
<linearGradient id="paint0_linear_1729_305" x1="354.5" y1="0" x2="354.5" y2="619.584" gradientUnits="userSpaceOnUse">
<stop stop-color="#00CCFF"/>
<stop offset="1" stop-color="#463C74"/>
</linearGradient>
<clipPath id="clip0_1729_305">
<rect width="709" height="323" rx="20" fill="white"/>
</clipPath>
</defs>
</svg>
