<svg width="39" height="39" viewBox="0 0 39 39" fill="none" xmlns="http://www.w3.org/2000/svg">
<circle cx="19.5001" cy="19.442" r="18.942" fill="#212529" stroke="#F9FBFC"/>
<path d="M29.3485 11.5733C28.3637 12.0558 27.3986 12.2518 26.3941 12.5482C25.2901 11.3025 23.6533 11.2335 22.0806 11.8224C20.5079 12.4113 19.4778 13.8511 19.5004 15.5027V16.4875C16.3047 16.5692 13.4586 15.1137 11.622 12.5482C11.622 12.5482 7.5035 19.8683 15.5612 23.3811C13.7176 24.6092 11.879 25.4374 9.65234 25.3507C12.9101 27.1263 16.4603 27.7369 19.5339 26.8447C23.0595 25.8205 25.9568 23.1782 27.0686 19.2203C27.4003 18.0165 27.565 16.7729 27.5581 15.5243C27.5581 15.2791 29.0452 12.7944 29.3485 11.5723V11.5733Z" stroke="white" stroke-width="2" stroke-linecap="round" stroke-linejoin="round"/>
</svg>
