<svg width="40" height="39" viewBox="0 0 40 39" fill="none" xmlns="http://www.w3.org/2000/svg">
<circle cx="20.152" cy="19.442" r="18.942" fill="#212529" stroke="#F9FBFC"/>
<path d="M12.1601 16.625H28.2601M12.1601 22.375H28.2601M19.7309 10.875C18.1165 13.4621 17.2606 16.4505 17.2606 19.5C17.2606 22.5495 18.1165 25.5379 19.7309 28.125M20.6891 10.875C22.3036 13.4621 23.1595 16.4505 23.1595 19.5C23.1595 22.5495 22.3036 25.5379 20.6891 28.125M11.585 19.5C11.585 20.6327 11.8081 21.7542 12.2415 22.8006C12.6749 23.8471 13.3103 24.7979 14.1112 25.5988C14.9121 26.3997 15.8629 27.035 16.9093 27.4685C17.9557 27.9019 19.0773 28.125 20.21 28.125C21.3426 28.125 22.4642 27.9019 23.5106 27.4685C24.557 27.035 25.5079 26.3997 26.3088 25.5988C27.1097 24.7979 27.745 23.8471 28.1784 22.8006C28.6119 21.7542 28.835 20.6327 28.835 19.5C28.835 17.2125 27.9263 15.0187 26.3088 13.4012C24.6913 11.7837 22.4975 10.875 20.21 10.875C17.9225 10.875 15.7287 11.7837 14.1112 13.4012C12.4937 15.0187 11.585 17.2125 11.585 19.5Z" stroke="white" stroke-width="2" stroke-linecap="round" stroke-linejoin="round"/>
</svg>
